<svg xmlns="http://www.w3.org/2000/svg" xmlns:xlink="http://www.w3.org/1999/xlink" width="333.844" height="276.863" viewBox="0 0 333.844 276.863"><defs><style>.a,.c{fill:#ff5018;}.a{opacity:0.35;}.b{fill:none;stroke:#535461;stroke-miterlimit:10;stroke-width:2px;}.d{fill:#ffd037;}.e{fill:url(#a);}.f{fill:#f7f7fd;}.g{fill:#e2e2ec;}.h{fill:#fff;}.i{fill:#fc6681;}.j{fill:url(#b);}.k{fill:#db8b8b;}.l{opacity:0.1;}.m{fill:#2e3037;}.n{fill:#474463;}.o{opacity:0.05;}.p{fill:#472727;}</style><linearGradient id="a" x1="0.5" y1="1" x2="0.5" gradientUnits="objectBoundingBox"><stop offset="0" stop-color="gray" stop-opacity="0.251"/><stop offset="0.54" stop-color="gray" stop-opacity="0.122"/><stop offset="1" stop-color="gray" stop-opacity="0.102"/></linearGradient><linearGradient id="b" x1="6.341" y1="1" x2="6.341" y2="0" xlink:href="#a"/></defs><path class="a" d="M428.969,202.571c-12.822,20.743-10.42,49-4.788,71.282,1.884,7.46,4.055,15.336,2.444,23.685-1.97,10.209-9.154,18.226-16.425,22.817-13.255,8.349-28.39,8.117-39.411-.612-9.517-7.54-15.785-20.691-25.5-27.826-16.248-11.944-38.561-4.705-57.934,6.458-13.7,7.879-28.781,17.9-41.444,12.228-8.909-3.986-14.465-15.232-17.057-27.47-1.251-5.908-2.009-12.363-4.878-16.864a18.927,18.927,0,0,0-6.489-5.936c-22.212-13.393-52.265-2.2-73.685-17.362-14.468-10.24-22.693-31.391-25.4-54.007s-.481-46.816,2.3-70.643c1.981-16.94,4.66-35.062,13.552-48.839,9.407-14.572,24.234-21.088,37.123-19.706s24.079,9.549,33.724,19.529c12.055,12.473,22.928,28.4,38.53,32.428,10.627,2.741,22.233-.432,33.534-2.226,18.869-3,37.475-2.14,55.95-1.013,17.687,1.079,35.48,2.42,51.961,8.643,11.661,4.408,20.611,13.583,31.494,19.55,7.094,3.889,15.1,4.384,21.707,9.569a32.641,32.641,0,0,1,11.927,33.088C447.1,183.526,435.772,191.564,428.969,202.571Z" transform="translate(-117.177 -49.595)"/><path class="b" d="M781.67,221.2s34.917-29.258,42.682-44.009A210.734,210.734,0,0,1,842,149.73" transform="translate(-551.946 -115.112)"/><path class="c" d="M914.314,238.675l-15.1-3.405S902.774,251.2,914.314,238.675Z" transform="translate(-628.851 -171.08)"/><path class="c" d="M871.817,198.08l8.691,13.016S863.516,212.323,871.817,198.08Z" transform="translate(-609.434 -146.747)"/><path class="c" d="M933.964,205.15l-13.8-2.42S928.831,215.919,933.964,205.15Z" transform="translate(-642.559 -149.789)"/><path class="c" d="M898.5,176.08l6.8,8.906S893.264,186.126,898.5,176.08Z" transform="translate(-627.524 -132.353)"/><path class="c" d="M940.81,170.95s11.754.56,13.137,1.684-1.753,7.709-6.223,6.634S940.81,170.95,940.81,170.95Z" transform="translate(-656.07 -128.996)"/><path class="c" d="M918.938,140.56s4.8,8.75,4.622,10.416-7.319,3.537-8.76-2.766S918.938,140.56,918.938,140.56Z" transform="translate(-638.896 -109.112)"/><circle class="d" cx="3.268" cy="3.268" r="3.268" transform="translate(287.757 39.279) rotate(-72.474)"/><circle class="d" cx="3.268" cy="3.268" r="3.268" transform="translate(282.64 35.915) rotate(-72.474)"/><path class="c" d="M304.787,530.354s5.6-16.67-29.921-36.767c0,0-36.072-10.52-32.383-46.647,0,0-41.582,30.464-13.445,69.27s52.424,30.336,52.424,30.336Z" transform="translate(-183.973 -309.573)"/><path class="b" d="M328.9,537.883s-17.334-18.734-33.949-25.977a33.089,33.089,0,0,1-9.026-6.012,41.308,41.308,0,0,1-12.48-38.374l3.993-20.58" transform="translate(-218.915 -309.573)"/><rect class="e" width="197.267" height="229.045" transform="translate(66.748 11.476)"/><rect class="f" width="192.672" height="223.707" transform="translate(69.047 14.141)"/><rect class="g" width="48.707" height="3.879" transform="translate(80.684 39.358)"/><rect class="g" width="83.189" height="3.879" transform="translate(80.684 48.84)"/><rect class="h" width="34.568" height="29.828" transform="translate(217.924 35.652)"/><path class="g" d="M781.571,152.566v29.482H747.346V152.566h34.226m.346-.346H747v30.174h34.917Z" transform="translate(-529.262 -116.741)"/><rect class="h" width="34.568" height="29.828" transform="translate(183.011 35.652)"/><path class="g" d="M680.571,152.566v29.482H646.346V152.566h34.226m.346-.346H646v30.174h34.917Z" transform="translate(-463.179 -116.741)"/><rect class="h" width="34.568" height="29.828" transform="translate(217.924 65.825)"/><path class="g" d="M781.571,239.846v29.482H747.346V239.846h34.226m.346-.346H747v30.174h34.917Z" transform="translate(-529.262 -173.848)"/><rect class="h" width="34.568" height="29.828" transform="translate(183.011 65.825)"/><path class="g" d="M680.571,239.846v29.482H646.346V239.846h34.226m.346-.346H646v30.174h34.917Z" transform="translate(-463.179 -173.848)"/><rect class="h" width="34.568" height="29.828" transform="translate(148.097 65.825)"/><path class="g" d="M579.621,239.846v29.482H545.4V239.846h34.225m.346-.346H545.05v30.174h34.917Z" transform="translate(-397.129 -173.848)"/><rect class="h" width="34.568" height="29.828" transform="translate(113.184 65.825)"/><path class="g" d="M478.631,239.846v29.482H444.406V239.846h34.226m.346-.346H444.06v30.174h34.917Z" transform="translate(-331.052 -173.848)"/><rect class="h" width="34.568" height="29.828" transform="translate(78.27 65.825)"/><path class="g" d="M377.641,239.846v29.482H343.416V239.846h34.226m.346-.346H343.07v30.174h34.917Z" transform="translate(-264.976 -173.848)"/><rect class="h" width="34.568" height="29.828" transform="translate(217.924 95.996)"/><path class="g" d="M781.571,327.126v29.482H747.346V327.126h34.226m.346-.346H747v30.174h34.917Z" transform="translate(-529.262 -230.954)"/><rect class="h" width="34.568" height="29.828" transform="translate(183.011 95.996)"/><path class="g" d="M680.571,327.126v29.482H646.346V327.126h34.226m.346-.346H646v30.174h34.917Z" transform="translate(-463.179 -230.954)"/><rect class="h" width="34.568" height="29.828" transform="translate(148.097 95.996)"/><path class="g" d="M579.621,327.126v29.482H545.4V327.126h34.225m.346-.346H545.05v30.174h34.917Z" transform="translate(-397.129 -230.954)"/><rect class="h" width="34.568" height="29.828" transform="translate(113.184 95.996)"/><path class="g" d="M478.631,327.126v29.482H444.406V327.126h34.226m.346-.346H444.06v30.174h34.917Z" transform="translate(-331.052 -230.954)"/><rect class="h" width="34.568" height="29.828" transform="translate(78.27 95.996)"/><path class="g" d="M377.641,327.126v29.482H343.416V327.126h34.226m.346-.346H343.07v30.174h34.917Z" transform="translate(-264.976 -230.954)"/><rect class="h" width="34.568" height="29.828" transform="translate(217.924 126.169)"/><path class="g" d="M781.571,414.4v29.482H747.346V414.4h34.226m.346-.346H747v30.174h34.917Z" transform="translate(-529.262 -288.053)"/><rect class="h" width="34.568" height="29.828" transform="translate(183.011 126.169)"/><path class="g" d="M680.571,414.4v29.482H646.346V414.4h34.226m.346-.346H646v30.174h34.917Z" transform="translate(-463.179 -288.053)"/><rect class="h" width="34.568" height="29.828" transform="translate(148.097 126.169)"/><path class="g" d="M579.621,414.4v29.482H545.4V414.4h34.225m.346-.346H545.05v30.174h34.917Z" transform="translate(-397.129 -288.053)"/><rect class="h" width="34.568" height="29.828" transform="translate(113.184 126.169)"/><path class="g" d="M478.631,414.4v29.482H444.406V414.4h34.226m.346-.346H444.06v30.174h34.917Z" transform="translate(-331.052 -288.053)"/><rect class="h" width="34.568" height="29.828" transform="translate(78.27 126.169)"/><path class="g" d="M377.641,414.4v29.482H343.416V414.4h34.226m.346-.346H343.07v30.174h34.917Z" transform="translate(-264.976 -288.053)"/><rect class="h" width="34.568" height="29.828" transform="translate(217.924 156.34)"/><path class="g" d="M781.571,501.676v29.479H747.346V501.676h34.226m.346-.346H747V531.5h34.917Z" transform="translate(-529.262 -345.16)"/><rect class="h" width="34.568" height="29.828" transform="translate(183.011 156.34)"/><path class="g" d="M680.571,501.676v29.479H646.346V501.676h34.226m.346-.346H646V531.5h34.917Z" transform="translate(-463.179 -345.16)"/><rect class="h" width="34.568" height="29.828" transform="translate(148.097 156.34)"/><path class="g" d="M579.621,501.676v29.479H545.4V501.676h34.225m.346-.346H545.05V531.5h34.917Z" transform="translate(-397.129 -345.16)"/><rect class="h" width="34.568" height="29.828" transform="translate(113.184 156.34)"/><path class="g" d="M478.631,501.676v29.479H444.406V501.676h34.226m.346-.346H444.06V531.5h34.917Z" transform="translate(-331.052 -345.16)"/><rect class="h" width="34.568" height="29.828" transform="translate(78.27 156.34)"/><path class="g" d="M377.641,501.676v29.479H343.416V501.676h34.226m.346-.346H343.07V531.5h34.917Z" transform="translate(-264.976 -345.16)"/><rect class="h" width="34.568" height="29.828" transform="translate(217.924 186.514)"/><path class="g" d="M781.571,588.946v29.482H747.346V588.946h34.226m.346-.346H747v30.174h34.917Z" transform="translate(-529.262 -402.259)"/><rect class="h" width="34.568" height="29.828" transform="translate(183.011 186.514)"/><path class="g" d="M680.571,588.946v29.482H646.346V588.946h34.226m.346-.346H646v30.174h34.917Z" transform="translate(-463.179 -402.259)"/><rect class="h" width="34.568" height="29.828" transform="translate(148.097 186.514)"/><path class="g" d="M579.621,588.946v29.482H545.4V588.946h34.225m.346-.346H545.05v30.174h34.917Z" transform="translate(-397.129 -402.259)"/><rect class="h" width="34.568" height="29.828" transform="translate(113.184 186.514)"/><path class="g" d="M478.631,588.946v29.482H444.406V588.946h34.226m.346-.346H444.06v30.174h34.917Z" transform="translate(-331.052 -402.259)"/><rect class="h" width="34.568" height="29.828" transform="translate(78.27 186.514)"/><path class="g" d="M377.641,588.946v29.482H343.416V588.946h34.226m.346-.346H343.07v30.174h34.917Z" transform="translate(-264.976 -402.259)"/><path class="c" d="M513.11,738.029a5.556,5.556,0,0,0,2.206-2.714,2.3,2.3,0,0,0-1.542-2.766c-1.414-.443-2.925.346-4.073,1.165s-2.458,1.729-3.958,1.559a4.412,4.412,0,0,0,1.863-4.6,1.783,1.783,0,0,0-.519-.933c-.785-.691-2.209-.391-3.149.149-2.99,1.728-3.824,5.03-3.841,8.014a12.407,12.407,0,0,1-.055-3.3,3.141,3.141,0,0,0-1.518-2.921,5.432,5.432,0,0,0-2.316-.446,5.562,5.562,0,0,0-3.758.871c-1.141,1-.844,2.669.149,3.765a14.5,14.5,0,0,0,3.889,2.541,7.938,7.938,0,0,1,2.766,2.164,1.966,1.966,0,0,1,.207.387h8.425A24.219,24.219,0,0,0,513.11,738.029Z" transform="translate(-362.233 -494.342)"/><circle class="i" cx="1.971" cy="1.971" r="1.971" transform="translate(80.86 68.391)"/><circle class="d" cx="1.971" cy="1.971" r="1.971" transform="translate(85.783 68.391)"/><circle class="c" cx="1.971" cy="1.971" r="1.971" transform="translate(150.445 97.603)"/><circle class="c" cx="1.971" cy="1.971" r="1.971" transform="translate(155.371 97.603)"/><circle class="c" cx="1.971" cy="1.971" r="1.971" transform="translate(255.808 154.058)"/><circle class="c" cx="1.971" cy="1.971" r="1.971" transform="translate(256.793 151.763)"/><circle class="c" cx="1.971" cy="1.971" r="1.971" transform="translate(257.778 149.792)"/><circle class="c" cx="1.971" cy="1.971" r="1.971" transform="translate(221.015 68.391)"/><circle class="c" cx="1.971" cy="1.971" r="1.971" transform="translate(225.938 68.391)"/><circle class="c" cx="1.971" cy="1.971" r="1.971" transform="translate(230.864 68.391)"/><circle class="c" cx="1.971" cy="1.971" r="1.971" transform="translate(235.787 68.391)"/><circle class="c" cx="1.971" cy="1.971" r="1.971" transform="translate(221.015 129.44)"/><circle class="c" cx="1.971" cy="1.971" r="1.971" transform="translate(225.938 129.44)"/><circle class="c" cx="1.971" cy="1.971" r="1.971" transform="translate(230.864 129.44)"/><circle class="c" cx="1.971" cy="1.971" r="1.971" transform="translate(235.787 129.44)"/><circle class="d" cx="1.971" cy="1.971" r="1.971" transform="translate(115.652 97.603)"/><circle class="i" cx="1.971" cy="1.971" r="1.971" transform="translate(80.86 127.473)"/><path class="j" d="M855.684,305.7c2.161,1.276,5.531,2.105,9.8-.636l-.041,6.071c.3,4.149,5.452,19.329,5.452,19.329l3.63,12.48a97.644,97.644,0,0,1,3.989,27.149,25.98,25.98,0,0,0,1.158,8.546c1.933,5.224-.761,11.955-1.929,14.461a60.735,60.735,0,0,1-5.991,1.687,4.1,4.1,0,0,0-.536.163l-.024-.035s-5.448,2.161-7.868,1.863c-1.8-.221-2.935,2.029-1.521,3.685a11.063,11.063,0,0,1-3.627.477c-2.42-.3-3.633,3.865.909,5.054s30.281,0,30.281,0a3.651,3.651,0,0,0,1.936-4.031c1.977-.076,3.211-.135,3.211-.135s4.543-2.074,0-7.734l-.242.183-.971-2.859v-3.862s5.753-27.657,3.938-30.927-2.724-19.923-2.724-19.923l.615-18.139c1.642-3.388,2.482-8.7,2.908-12.85a27.274,27.274,0,0,0,1.162-6.095c.073-.975.131-2,.169-3.06a20.511,20.511,0,0,0-1.127-6.842A67.908,67.908,0,0,1,905.1,281.1a8.837,8.837,0,0,0,2.724-7.734l-1.514-10.112-3.633-17.248c.456-4.785-.543-7.54-1.646-9.1.263-1.545.508-3.091.692-4.643a59.415,59.415,0,0,0-1.061-20.217,13.689,13.689,0,0,0-2.862-6.437c-1.836-1.984-4.816-3.194-5.5-5.794a16.852,16.852,0,0,0-.422-1.957c-.664-1.7-2.766-2.32-4.6-2.541-3.277-.4-8.017-.691-11.167.588a13.548,13.548,0,0,0-6.43,6.029,4.533,4.533,0,0,0-.2,4.978,11.409,11.409,0,0,0-.705,3.972,11.6,11.6,0,0,0,7.405,10.762c.073.228.138.453.194.674a11.554,11.554,0,0,1,.3,1.621c-.059,1.037-.124,2.105-.173,3.16q-.052.218-.111.429a77.922,77.922,0,0,0-7.606,3.879c1.819,2.676-.3,13.977-.3,13.977-4.543,2.676-9.085,9.517-4.238,16.653a17.8,17.8,0,0,1,2.119,14.866l-.757,11.626h0v.021l-.152,2.327h.059l-.059.882.131.024v.947a14.12,14.12,0,0,0-7.087,5.272,18.608,18.608,0,0,1-3.17,3.889,2.337,2.337,0,0,0,.363,3.792ZM892.247,274.8a11.062,11.062,0,0,1,1.075-5.849q1.068.021,2.14.024c.073.5.159.978.263,1.414.615,2.621-1.843,3.875-3.481,4.408Z" transform="translate(-599.607 -144.723)"/><path class="k" d="M919.59,754.866l1.165,3.5-3.8,3.8-12.529,2.914-9.033-.875.584-3.2h0a3.866,3.866,0,0,1,2.869-2.825c3.713-.871,10.793-2.862,12.279-5.625Z" transform="translate(-626.352 -509.53)"/><path class="l" d="M919.59,754.866l1.165,3.5-3.8,3.8-12.529,2.914-9.033-.875.584-3.2h0a3.866,3.866,0,0,1,2.869-2.825c3.713-.871,10.793-2.862,12.279-5.625Z" transform="translate(-626.352 -509.53)"/><path class="m" d="M885.6,772.665l1.749-2.33-1.749-2.7s-5.245,2.116-7.575,1.825-3.5,3.8.875,4.954,29.137,0,29.137,0,4.37-2.04,0-7.575l-3.8,2.914s-6.409,3.5-9.614,2.914Z" transform="translate(-613.629 -518.88)"/><path class="k" d="M881.1,775.924l9.033.875,12.529-2.914,3.8-3.8-.307-.927-.436-1.3-.436-1.265-8.449-2.33a5.235,5.235,0,0,1-1.729,1.729c-2.745,1.877-7.675,3.232-10.568,3.91a3.048,3.048,0,0,0-.346.107,3.852,3.852,0,0,0-2.51,2.717Z" transform="translate(-617.002 -517.191)"/><path class="l" d="M881.1,785.189l9.033.875,12.529-2.914,3.8-3.8-.307-.927-3.478,2.676s-6.409,3.5-9.614,2.914h-9.051l1.749-2.33-1.57-2.42a3.852,3.852,0,0,0-2.51,2.717Z" transform="translate(-617.002 -526.456)"/><path class="m" d="M871.265,784.465l1.749-2.33-1.749-2.7s-5.244,2.116-7.574,1.825-3.5,3.8.875,4.954,29.137,0,29.137,0,4.37-2.04,0-7.575l-3.8,2.914s-6.409,3.5-9.614,2.914Z" transform="translate(-604.253 -526.6)"/><path class="k" d="M910.6,277.44s13.988,1.455,11.948-4.37a10.491,10.491,0,0,1-.432-5.144A14.262,14.262,0,0,1,924.588,262l-13.113,2.04a16.42,16.42,0,0,1,1.777,4.211C914.814,274.428,910.6,277.44,910.6,277.44Z" transform="translate(-636.304 -188.569)"/><path class="n" d="M947.7,498.82s-.29,12.529-3.2,18.648l-.584,17.773s.875,16.318,2.624,19.522-3.8,30.3-3.8,30.3v4.664s-9.334,3.5-11.948-.584l2.624-34.675-1.165-48.075Z" transform="translate(-649.507 -343.517)"/><path class="l" d="M947.7,498.82s-.29,12.529-3.2,18.648l-.584,17.773s.875,16.318,2.624,19.522-3.8,30.3-3.8,30.3v4.664s-9.334,3.5-11.948-.584l2.624-34.675-1.165-48.075Z" transform="translate(-649.507 -343.517)"/><path class="i" d="M971.759,382.51l1.749,4.664,1.456,9.908a8.764,8.764,0,0,1-2.624,7.575c-3.5,3.5-8.159,10.779-8.159,10.779l-5.531-16.594s5.531-.875,4.664-4.664-.588-10.807-.588-10.807Z" transform="translate(-667.742 -267.417)"/><path class="o" d="M971.759,382.51l1.749,4.664,1.456,9.908a8.764,8.764,0,0,1-2.624,7.575c-3.5,3.5-8.159,10.779-8.159,10.779l-5.531-16.594s5.531-.875,4.664-4.664-.588-10.807-.588-10.807Z" transform="translate(-667.742 -267.417)"/><path class="l" d="M921.66,765.992c3.737,5.877,9.556,2.548,10.586,1.884l-.422-1.286-8.449-2.33A5.235,5.235,0,0,1,921.66,765.992Z" transform="translate(-643.54 -517.191)"/><path class="n" d="M887.85,470.455c.29,4.079,5.244,18.938,5.244,18.938l3.5,12.228a97.309,97.309,0,0,1,3.841,26.6,25.83,25.83,0,0,0,1.117,8.373c2.33,6.41-2.33,15.153-2.33,15.153,4.079,7.284,11.063,2.33,11.063,2.33v-4.66s5.531-25.351,4.079-30.3-2.04-18.357-2.04-18.357v-24.2a27.443,27.443,0,0,0,8-17.4c.069-.954.124-1.957.162-3,.235-6.568-4.259-14.281-6.015-17.026-.422-.664-.692-1.037-.692-1.037l-25.728,10.206-.059.024v3.2Z" transform="translate(-621.419 -303.789)"/><path class="l" d="M913.13,264.036a16.417,16.417,0,0,1,1.777,4.211,11.409,11.409,0,0,0,8.864-.325A14.261,14.261,0,0,1,926.243,262Z" transform="translate(-637.959 -188.569)"/><circle class="k" cx="11.364" cy="11.364" r="11.364" transform="translate(269.636 57.106)"/><path class="l" d="M887.85,451.543l.125.024c12.217,2.513,27.557-10.223,27.557-10.223a15.081,15.081,0,0,1-1.061-2.168c-.422-.664-.691-1.037-.691-1.037l-25.728,10.205-.066,1.02Z" transform="translate(-621.419 -303.815)"/><path class="i" d="M885.061,292.914s16.318-9.908,21.562-5.829l7.284,9.334s4.664,1.455,3.8,10.779l3.481,16.895L910.7,326.718s-6.119,5.829-1.165,14.278c0,0-15.443,12.819-27.681,10.2l.875-13.694a17.734,17.734,0,0,0-2.04-14.568c-4.664-6.994-.291-13.694,4.079-16.318C884.771,306.611,886.807,295.538,885.061,292.914Z" transform="translate(-615.425 -204.338)"/><path class="k" d="M870.286,477.75s-6.119,1.165-9.033,5.829a18.168,18.168,0,0,1-3.049,3.8,2.313,2.313,0,0,0,.346,3.685c2.313,1.383,6.085,2.244,10.849-1.67C877.57,482.7,870.286,477.75,870.286,477.75Z" transform="translate(-601.525 -329.732)"/><path class="l" d="M902,321.416s5.829-.584,7.284,14.568,3.8,18.648,3.8,18.648,1.455,7.868-2.04,12.529-10.2,14.568-10.2,14.568-7.284,2.04-8.74-5.245l9.034-16.9s1.456-5.829-2.04-9.908S892.967,318.5,902,321.416Z" transform="translate(-624.206 -227.301)"/><path class="i" d="M900.281,318.886s5.829-.584,7.284,14.568,3.8,18.648,3.8,18.648,1.455,7.869-2.04,12.529-10.2,14.568-10.2,14.568-7.284,2.04-8.74-5.244l9.034-16.9s1.455-5.829-2.04-9.908S891.258,315.972,900.281,318.886Z" transform="translate(-623.08 -225.646)"/><path class="l" d="M905.016,350.9s-.581,9.023,2.033,13.987,2.624,11.364,0,14.866" transform="translate(-632.614 -246.735)"/><path class="l" d="M900.91,309.5s2.33-2.33,9.034-2.624,9.614-2.33,9.614-2.33" transform="translate(-629.964 -216.409)"/><path class="l" d="M914.868,204.545c1.77.218,3.8.826,4.432,2.489a17.024,17.024,0,0,1,.4,1.919c.66,2.544,3.526,3.73,5.293,5.677a13.747,13.747,0,0,1,2.766,6.306,59.256,59.256,0,0,1,1.037,19.8c-.567,4.84-1.729,9.59-2.054,14.444s.27,9.96,2.921,14.039c1.141,1.753,2.648,3.295,3.457,5.224-1.67,1.355-3.976,1.549-6.129,1.621q-3.758.128-7.519,0a8.018,8.018,0,0,1-3.82-.8,5.9,5.9,0,0,1-2.005-2.154,15.31,15.31,0,0,1-1.729-8.18c.066-2.821.508-5.628.56-8.453a7.394,7.394,0,0,0-.978-4.432,14.445,14.445,0,0,0-2.441-2.257c-3.111-2.766-4.19-7.2-4.294-11.364s.584-8.339.232-12.491c-.138-1.625-.747-3.578-2.344-3.893a8.249,8.249,0,0,1-1.521-.194c-1.283-.494-1.158-2.3-1.525-3.627-.411-1.487-1.68-2.634-2.036-4.149-.84-3.526,3.647-7.734,6.589-8.961C907.155,203.861,911.715,204.158,914.868,204.545Z" transform="translate(-627.714 -150.758)"/><path class="p" d="M915.708,202.861c1.77.218,3.8.826,4.432,2.489a17.051,17.051,0,0,1,.4,1.919c.661,2.544,3.526,3.73,5.293,5.677a13.746,13.746,0,0,1,2.766,6.306,59.259,59.259,0,0,1,1.037,19.8c-.567,4.84-1.729,9.59-2.053,14.444s.27,9.96,2.921,14.039c1.141,1.753,2.648,3.295,3.457,5.224-1.67,1.355-3.976,1.549-6.13,1.621q-3.758.128-7.519,0a8.018,8.018,0,0,1-3.82-.8,5.9,5.9,0,0,1-2.005-2.154,15.314,15.314,0,0,1-1.729-8.18c.066-2.821.508-5.628.56-8.453a7.393,7.393,0,0,0-.978-4.432A14.446,14.446,0,0,0,909.9,248.1c-3.111-2.766-4.19-7.2-4.294-11.364s.584-8.339.232-12.491c-.139-1.625-.747-3.578-2.344-3.893a8.249,8.249,0,0,1-1.521-.194c-1.283-.494-1.158-2.3-1.525-3.627-.411-1.487-1.68-2.634-2.036-4.149-.84-3.526,3.647-7.734,6.589-8.961C907.995,202.173,912.555,202.47,915.708,202.861Z" transform="translate(-628.264 -149.654)"/></svg>