<svg xmlns="http://www.w3.org/2000/svg" width="306.627" height="194.739" viewBox="0 0 306.627 194.739"><defs><style>.a,.h{fill:#ff5018;}.a{opacity:0.35;}.b{fill:#be6f72;}.c{opacity:0.1;}.d{fill:#3f3d56;}.e{fill:#fbbebe;}.f{fill:#e3e8f4;}.g{fill:#f86d70;}.i{opacity:0.2;}</style></defs><path class="a" d="M339.679,364.637c-3.077,7.482-9.514,14.24-16.423,20.641q-9.111,8.441-19.492,16.314-2.877,2.185-5.845,4.316l-1.375.981q-1.829,1.309-3.72,2.592l-.151.1q-1.834,1.262-3.7,2.5a101.147,101.147,0,0,1-13.13,7.613c-1.621.759-3.293,1.467-5.024,2.1q-1.4.516-2.869.967c-1.6.492-3.241.921-4.957,1.273-.286.06-.575.117-.864.172-1.756.333-3.533.576-5.329.743a81.045,81.045,0,0,1-19.975-.88c-3.3-.522-6.54-1.194-9.678-1.959-.386-.093-.77-.188-1.156-.273-10.689-2.7-20.724-6.376-31.488-8.957q-5.564-1.336-11.345-2.267-2.82-.453-5.672-.819c-4.476-.563-9.008-.94-13.56-1.131a82.007,82.007,0,0,0-18.314.929q-1.167.216-2.3.486-1.442.341-2.831.779a50.078,50.078,0,0,0-7.263,3.024c-.462.229-.918.462-1.375.7h0c-1.432.738-2.844,1.492-4.279,2.224a53.679,53.679,0,0,1-8.033,3.447,42.144,42.144,0,0,1-4.614,1.191,67.245,67.245,0,0,1-12.922,1.188c-2.126,0-4.254-.046-6.359-.158h-.065c-.719-.038-1.44-.082-2.161-.137-3.285-.227-6.558-.576-9.784-1.054-11.051-1.639-21.531-4.737-29.962-9.463-11.45-6.414-18.722-15.978-17.631-25.533.783-6.884,5.648-13.276,10.265-19.535C54.88,355.1,62.924,343.18,67.157,330.617c3.433-10.2,4.457-20.98,12.358-30.145a41.527,41.527,0,0,1,9.535-7.957A60.629,60.629,0,0,1,97.877,288a75.709,75.709,0,0,1,10.64-3.51,83.849,83.849,0,0,1,9.541-1.814c1.745-.229,3.512-.407,5.289-.527q2.053-.145,4.125-.183h.213q1.267-.025,2.534,0a116.775,116.775,0,0,1,18.368,1.746c3.8.642,7.563,1.429,11.25,2.295q3.3.773,6.542,1.62c.659.172,1.318.347,1.969.524,15.375,4.166,28.9,9.919,43.716,14.639.076.025.149.049.224.068h0a90.424,90.424,0,0,0,9.249,2.349q3.44.7,7.023,1.218c3.652.546,7.382.978,11.14,1.349l.829.082c5.513.546,11.075.953,16.477,1.429,1.918.169,3.819.344,5.694.546q1.783.18,3.533.382c.837.1,1.677.2,2.518.3s1.729.213,2.593.325c.562.071,1.121.145,1.683.224,3.4.456,6.8.967,10.156,1.552,2.042.355,4.073.738,6.08,1.15q2.18.448,4.322.945,1.588.363,3.15.765a96.657,96.657,0,0,1,23.192,8.774C337.64,334.11,345.565,350.329,339.679,364.637Z" transform="translate(-34.975 -230.491)"/><ellipse class="a" cx="5.843" cy="5.909" rx="5.843" ry="5.909" transform="translate(61.414 12.877)"/><ellipse class="a" cx="5.843" cy="5.909" rx="5.843" ry="5.909" transform="translate(180.836 0)"/><ellipse class="a" cx="5.843" cy="5.909" rx="5.843" ry="5.909" transform="translate(251.648 13.232)"/><ellipse class="a" cx="9.792" cy="9.902" rx="9.792" ry="9.902" transform="translate(0 23.179)"/><ellipse class="a" cx="9.792" cy="9.902" rx="9.792" ry="9.902" transform="translate(9.387 72.076)"/><ellipse class="a" cx="9.792" cy="9.902" rx="9.792" ry="9.902" transform="translate(272.19 54.077)"/><path class="b" d="M354.112,311.791a10.774,10.774,0,0,1-.143,2.486c-.54,2.538-2.825,4.281-5.038,5.6s-4.643,2.573-5.959,4.805a8.257,8.257,0,0,0,.781,8.84,12.858,12.858,0,0,0,7.847,4.644,18.027,18.027,0,0,0,15.753-4.346,17.49,17.49,0,0,0,5.216-15.571c-2.253.32-4.26-1.691-4.989-3.871s-.578-4.543-.862-6.829a2.363,2.363,0,0,0-.335-1.093,2.419,2.419,0,0,0-1.4-.768c-2.6-.724-6.985-2.308-9.684-1.7C352.872,304.552,354.071,309.726,354.112,311.791Z" transform="translate(-258.395 -246.408)"/><path class="c" d="M354.112,311.791a10.774,10.774,0,0,1-.143,2.486c-.54,2.538-2.825,4.281-5.038,5.6s-4.643,2.573-5.959,4.805a8.257,8.257,0,0,0,.781,8.84,12.858,12.858,0,0,0,7.847,4.644,18.027,18.027,0,0,0,15.753-4.346,17.49,17.49,0,0,0,5.216-15.571c-2.253.32-4.26-1.691-4.989-3.871s-.578-4.543-.862-6.829a2.363,2.363,0,0,0-.335-1.093,2.419,2.419,0,0,0-1.4-.768c-2.6-.724-6.985-2.308-9.684-1.7C352.872,304.552,354.071,309.726,354.112,311.791Z" transform="translate(-258.395 -246.408)"/><path class="b" d="M340.6,745.826a53.679,53.679,0,0,1-8.033,3.447,42.133,42.133,0,0,1-4.614,1.191,29.69,29.69,0,0,1,.338-6.283,33.8,33.8,0,0,0,.6-3.587,9.5,9.5,0,0,0-1.067-5.037c3.009-.415,5.867-1.093,8.89-.893l.192.014a3.336,3.336,0,0,1,1.053.2,2.854,2.854,0,0,1,1.143,1.016,7.011,7.011,0,0,1,.43.669,10.749,10.749,0,0,1,1.245,4.985A33.534,33.534,0,0,1,340.6,745.826Z" transform="translate(-248.034 -559.507)"/><path class="b" d="M405.555,749.158q-1.442.341-2.831.778a50.087,50.087,0,0,0-7.263,3.024,10.958,10.958,0,0,1-.222-2.262,12.378,12.378,0,0,1,9.549-1.986,1.253,1.253,0,0,1,.605.246.814.814,0,0,1,.162.2Z" transform="translate(-297.235 -569.564)"/><path class="d" d="M345.126,613.79a21.183,21.183,0,0,1-1.08,5.259c-.678,1.8-1.78,3.551-1.64,5.477.062.836.343,1.743.384,2.571q-1.167.216-2.3.486-1.442.341-2.831.779a50.091,50.091,0,0,0-7.263,3.024c-.462.23-.918.462-1.375.7h0c-.189-.025-.375-.055-.565-.09a5.51,5.51,0,0,1-3.536-1.953,3.151,3.151,0,0,1-.408-.82c-.44-1.33.019-2.989-.9-4.043l-.043.038-.032.022a9.082,9.082,0,0,1-1.642,1.2h0a10.9,10.9,0,0,1-8.914.869,9.714,9.714,0,0,1-1.672-.759c-1.237-.713-2.431-1.912-2.334-3.344.054-.8.505-1.563.384-2.352a4.945,4.945,0,0,0-.732-1.535c-1.807-3.278.348-7.493-.786-11.055-.027-.085-.057-.169-.086-.251-.084-.232-.178-.456-.27-.68-.232-.522-.492-1.035-.7-1.571a9.221,9.221,0,0,1-.405-1.385,17.528,17.528,0,0,1-.27-4.158,43.95,43.95,0,0,1,1.572-10.96c.165-.628.348-1.516.592-2.483h0a19.169,19.169,0,0,1,.956-2.983,3.861,3.861,0,0,1,2.28-2.5c1.513-.358,3.825.4,5.359.585l6.064.732,12.126,1.467c2.093.254,4.292.546,6.018,1.737.113.079.224.161.335.249a6.892,6.892,0,0,1,1.216,1.251c.124.161.243.331.357.5a11.417,11.417,0,0,1,1,1.929c1.5,3.655,1.54,7.734,1.55,11.692A120.8,120.8,0,0,1,345.126,613.79Z" transform="translate(-232.163 -447.985)"/><path class="c" d="M357.911,690.567c-.365-1.42-1.134-3.477-1.248-4.037a51.764,51.764,0,0,1-.827-5.687c-.3-3.4-.84-8.2.348-11.432a7.839,7.839,0,0,1,2.612,3.464c1.869,4.21-.235,9.378,1.521,13.637a2.263,2.263,0,0,1,.24.819,2,2,0,0,1-.373,1.005l-.592.994Z" transform="translate(-268.194 -512.104)"/><path class="b" d="M485.991,200.96c1.988-3.278,4.711-6.5,4.541-10.334a20.677,20.677,0,0,0-.843-4.04,26.06,26.06,0,0,1-.186-11.826,13.089,13.089,0,0,1,9.551,2.164,5.493,5.493,0,0,1,2.11,2.4,7.017,7.017,0,0,1,.235,2.975c-.149,2.3-.351,4.748-1.75,6.556-.435.565-.97,1.044-1.394,1.614a10.5,10.5,0,0,0-1.334,2.795L492.328,205.9c-2.318,6.368-4.83,13.028-9.935,17.434-.124.107-3.782-5.147-4.084-5.674-1.224-2.161-.689-3.073.791-4.882C482.02,209.2,483.606,204.885,485.991,200.96Z" transform="translate(-357.371 -152.455)"/><path class="e" d="M266.223,665.33a21.206,21.206,0,0,1-.235,2.816c-.049.344-.105.686-.173,1.027-.921,4.862-3.214,9.487-4.819,14.224a83.462,83.462,0,0,0-3.782,17.887c-2.126,0-4.254-.046-6.359-.159h-.065c-.719-.038-1.44-.082-2.161-.137.651-5.791-.54-11.867.624-17.663.47-2.333,1.272-4.6,1.756-6.919a19.8,19.8,0,0,0,.338-2.071,5.607,5.607,0,0,1,.4-1.942,1.431,1.431,0,0,1,.092-.167,4.661,4.661,0,0,1,.951-1.093,23.615,23.615,0,0,1,11.631-5.608C265.032,665.442,265.629,665.371,266.223,665.33Z" transform="translate(-190.228 -509.139)"/><path class="c" d="M266.223,665.33a21.206,21.206,0,0,1-.235,2.816c-.049.344-.105.686-.173,1.027-.921,4.862-3.214,9.487-4.819,14.224a83.462,83.462,0,0,0-3.782,17.887c-2.126,0-4.254-.046-6.359-.159h-.065c-.719-.038-1.44-.082-2.161-.137.651-5.791-.54-11.867.624-17.663.47-2.333,1.272-4.6,1.756-6.919a19.8,19.8,0,0,0,.338-2.071,5.607,5.607,0,0,1,.4-1.942,1.431,1.431,0,0,1,.092-.167,4.661,4.661,0,0,1,.951-1.093,23.615,23.615,0,0,1,11.631-5.608C265.032,665.442,265.629,665.371,266.223,665.33Z" transform="translate(-190.228 -509.139)"/><path class="e" d="M212.727,685.5a43.275,43.275,0,0,1-.37,4.537c-.721,6.149-.856,12.566-1.351,18.808-.719-.038-1.44-.082-2.161-.137-3.285-.227-6.558-.576-9.784-1.054q.373-2.109.751-4.218a23.086,23.086,0,0,0,.527-5.212,30.82,30.82,0,0,0-.87-4.882c-.743-3.469-1.159-7.212-2.382-10.484a13.685,13.685,0,0,0-2.988-4.917c5.062-2.011,9.927-2.125,15.364-1.912a1.93,1.93,0,0,1,1.1.273,1.886,1.886,0,0,1,.554.847,21.385,21.385,0,0,1,1.521,6.234A20.668,20.668,0,0,1,212.727,685.5Z" transform="translate(-150.427 -516.858)"/><ellipse class="b" cx="10.535" cy="10.654" rx="10.535" ry="10.654" transform="translate(92.54 42.667)"/><path class="f" d="M343.474,363.9c1.351-2.33,2.534-5.239,5.132-5.887a7.892,7.892,0,0,1,4.422.628,1.64,1.64,0,0,1,1.407,1.765,74.881,74.881,0,0,1-.046,14.478c-.343,3.406-.921,6.8-1.024,10.219-.143,4.745.629,9.49.375,14.23A66.094,66.094,0,0,1,352,409.964l-3.241,14.7a2.52,2.52,0,0,1-.521,1.243,2.424,2.424,0,0,1-.956.546,35.234,35.234,0,0,1-28.8-2.281,8.757,8.757,0,0,1-3.1-2.51,7.427,7.427,0,0,1-.829-5.54c.351-1.885,1.11-3.663,1.621-5.513a42.876,42.876,0,0,0,1.153-8.834,70.788,70.788,0,0,0,.062-11.746c-.284-2.685-.875-5.33-1.321-7.993a89.126,89.126,0,0,1-1.14-12.137c-.068-2.428.043-5.125,1.7-6.876a7.812,7.812,0,0,1,2.99-1.781,8.745,8.745,0,0,1,5.77-.464c1.864.628,3.366,2.606,2.925,4.543-.2.9-.778,1.685-.918,2.6a3.764,3.764,0,0,0,1.351,3.24C333.615,375.6,341.046,368.116,343.474,363.9Z" transform="translate(-238.209 -285.679)"/><path class="d" d="M401.17,313.339a7.881,7.881,0,0,1,4.616-.273c.975.235,2.029.65,2.928.21.327-.158.6-.418.927-.565.891-.4,2.047.09,2.836-.486a2.834,2.834,0,0,0,.827-1.625,14.586,14.586,0,0,1,4.762-7.3c-.284,2.1-.489,4.48.881,6.081a6,6,0,0,0,2.385,1.538,7.062,7.062,0,0,0,4.011.571,3.5,3.5,0,0,0,2.812-2.674c-.046,2.057-1.983,3.494-2.526,5.48-.205.743-.186,1.532-.33,2.292-.365,1.94-1.734,3.5-2.931,5.059a36.212,36.212,0,0,0-7.077,17.27,8.413,8.413,0,0,1-.459,2.185,13.785,13.785,0,0,1-.9,1.563c-1.98,3.382-1.37,7.649-.7,11.511a166.66,166.66,0,0,0,3.8,17.876,6.235,6.235,0,0,0,1.364,2.795c-.235,2.385-2.615,3.472-4.754,4.5a23.309,23.309,0,0,0-5.781,3.958,4.605,4.605,0,0,0-1.448,2.035c-.211.768-.059,1.612-.33,2.357s-1.351,1.281-1.826.653c-.594-2.248.421-4.6.375-6.928-.032-1.571-.54-3.1-.613-4.668a15.087,15.087,0,0,1,1-5.212c1.534-4.7,3.387-9.359,3.919-14.279s-.462-10.293-3.914-13.8c-4.1-4.185-6.372-9.859-10.764-13.7-.7-.609-1.486-1.366-1.37-2.289a2.562,2.562,0,0,1,.516-1.109c1.507-2.153,3.512-3.909,5.132-5.969S401.465,315.962,401.17,313.339Z" transform="translate(-295.519 -246.005)"/><path class="d" d="M321.747,354.583a7.954,7.954,0,0,1-.77.885,2.519,2.519,0,0,1-1.213.38,38.789,38.789,0,0,1-4.8.434,14.654,14.654,0,0,0-4.052.254,7.255,7.255,0,0,0-4.168,3.633,18.167,18.167,0,0,0-1.686,5.428,73.386,73.386,0,0,0-1.229,12.536,32.806,32.806,0,0,0,5.9-6.2c1.3-1.778,2.472-3.745,4.322-4.933.851-.546,1.807-.907,2.663-1.44a15.382,15.382,0,0,0,4.211-4.644c.875-1.287,3.406-3.8,3.606-5.34A1.553,1.553,0,0,0,321.747,354.583Z" transform="translate(-230.517 -282.842)"/><path class="d" d="M371.774,237.753a8.538,8.538,0,0,1,.956.675c1.834,1.295,4.289,1.054,6.507.759a4.842,4.842,0,0,0,1.964-.546,3.119,3.119,0,0,0,1.286-2.9,5.8,5.8,0,0,0-1.321-3,10.657,10.657,0,0,0-7.388-4.076,4.7,4.7,0,0,0-2.212.238,17.814,17.814,0,0,0-2.334,1.612c-2.374,1.475-6.032.82-7.563,3.174-1.121,1.737-.321,4.1-.851,6.094-.394,1.492-1.532,2.849-1.313,4.371a7.089,7.089,0,0,0,1.035,2.267,10.113,10.113,0,0,1,1.24,5.526c1.04.743,2.49-.412,2.78-1.664s-.043-2.584.2-3.846c.435-2.215,2.369-3.841,3.241-5.873C368.63,239.1,369.651,236.646,371.774,237.753Z" transform="translate(-271.133 -191.726)"/><path class="e" d="M279.062,327.758a2.08,2.08,0,0,0,.14,1.467c.54.819,1.777.524,2.75.647a3.771,3.771,0,0,1,2.928,3.163,10.511,10.511,0,0,1-.44,4.573q-1.3,5.089-3.1,10.034c-3.225-.385-6.621-1.639-8.333-4.423-1.556-2.532-1.4-5.758-2.385-8.567a21.464,21.464,0,0,0-3.171-5.387c1.98.251,3.4-2.038,3.512-4.054s-.511-4.062-.084-6.032c.1-.467,7.9,1.005,8.663,1.538C281.734,322.256,279.408,325.621,279.062,327.758Z" transform="translate(-203.964 -257.481)"/><path class="c" d="M279.062,327.758a2.08,2.08,0,0,0,.14,1.467c.54.819,1.777.524,2.75.647a3.771,3.771,0,0,1,2.928,3.163,10.511,10.511,0,0,1-.44,4.573q-1.3,5.089-3.1,10.034c-3.225-.385-6.621-1.639-8.333-4.423-1.556-2.532-1.4-5.758-2.385-8.567a21.464,21.464,0,0,0-3.171-5.387c1.98.251,3.4-2.038,3.512-4.054s-.511-4.062-.084-6.032c.1-.467,7.9,1.005,8.663,1.538C281.734,322.256,279.408,325.621,279.062,327.758Z" transform="translate(-203.964 -257.481)"/><ellipse class="e" cx="10.535" cy="10.654" rx="10.535" ry="10.654" transform="translate(62.827 45.672)"/><path class="d" d="M221.911,272.638c.384-.606-.27-1.453.03-2.106.178-.393.629-.563.978-.82a3.68,3.68,0,0,0,1.018-1.336,15.683,15.683,0,0,0,1.4-10.367c-.249-1.18-.47-2.748.6-3.278a1.918,1.918,0,0,1,.943-.164c1.923.063,3.782,1.366,5.648.9a3.268,3.268,0,0,0,2.377-2.86c.122-1.765-1.186-3.278-2.472-4.466-2.315-2.153-5.843-2.631-8.987-2.683l-5.848-.1c-1.872-.033-3.971.027-5.273,1.385-1.875,1.953-.932,5.149-1.2,7.856a8.221,8.221,0,0,1-2.971,5.5c-1.213.978-2.882,1.912-2.861,3.475a5.7,5.7,0,0,0,.381,1.56,7.6,7.6,0,0,1-1.118,6.092A16.141,16.141,0,0,1,200,275.607a12.73,12.73,0,0,0-2.626,2.131A6.324,6.324,0,0,0,196,281.27a4.688,4.688,0,0,0,.573,2.849c1.143,1.847,3.884,2.117,5.762,1.046a9.474,9.474,0,0,0,3.782-5.136c.454-1.21.916-2.6,2.077-3.139,1.469-.691,3.187.4,4.144,1.726s1.545,2.942,2.769,4.018a4.906,4.906,0,0,0,6.8-.568,7.8,7.8,0,0,0,1.351-5.237A7.688,7.688,0,0,0,221.911,272.638Z" transform="translate(-151.794 -203.891)"/><path class="g" d="M184.516,354.848a3.851,3.851,0,0,1-3.352-1.172,13.464,13.464,0,0,1-2.123-3.035,53.424,53.424,0,0,0-5.443-7.632c-1.772-2.068-4.238-4.169-6.869-3.529a6.5,6.5,0,0,0-2.4,1.3,17.779,17.779,0,0,0-6.529,15.784c.205,1.74.673,3.442.867,5.19a33.644,33.644,0,0,1,.113,4.335c-.073,4.4-.221,9.061-2.569,12.771-3.638,5.737-5.586,12.588-8.258,18.849a64.881,64.881,0,0,0-3.155,10.572q-.754,3.191-1.5,6.379l-3.268,13.9a9.375,9.375,0,0,0-.319,4.371,6.437,6.437,0,0,0,4.63,4.248,23.961,23.961,0,0,0,6.5.524,36.028,36.028,0,0,1,12.288,2.03,13.064,13.064,0,0,0,3.425,1.016,7.891,7.891,0,0,0,3.493-.653c3.044-1.191,5.654-3.278,8.457-4.964a33.261,33.261,0,0,1,5.51-2.7,6.026,6.026,0,0,0,2.655-1.5,4.882,4.882,0,0,0,.889-2.144c.913-4.305.3-8.766,0-13.159s-2.9-9.034-.748-12.864a10.35,10.35,0,0,0,1.17-2.374c.292-1.12.046-2.325.292-3.456a18,18,0,0,1,.913-2.388,12.719,12.719,0,0,0,.583-4.45,49.359,49.359,0,0,0-1.026-9.834c-.851-4.1,1.964-8.149,3.576-12.02a19.219,19.219,0,0,0,1.637-4.177,13.018,13.018,0,0,0-.27-4.043,35.773,35.773,0,0,1-.378-6.283,21.375,21.375,0,0,0-.2-5.638,5.118,5.118,0,0,0-3.547-3.988,1.435,1.435,0,0,0-1.221.194,1.6,1.6,0,0,0-.429.765c-.594,1.841-.478,3.824-.81,5.737S186.38,354.444,184.516,354.848Z" transform="translate(-110.617 -272.216)"/><path class="b" d="M197.278,434.383c.111-.757-.238-1.762-.994-1.735-.7.027-1.008.91-1,1.617s.1,1.519-.4,2.016c-.438.44-1.162.426-1.669.784a1.393,1.393,0,0,0-.575,1.139c0,.38.17.743.181,1.123s-.24.82-.613.795a1.727,1.727,0,0,0,.246,2.076c.194.191.448.355.513.623a1.519,1.519,0,0,1-.043.56,1.465,1.465,0,0,0,1.148,1.675.927.927,0,0,0,.049,1.366,2.1,2.1,0,0,0,1.451.421,8.731,8.731,0,0,0,3.406-.713,2.031,2.031,0,0,0,.94-.656.826.826,0,0,0-.078-1.06c.524.087,1.153.137,1.5-.273.478-.574-.035-1.423-.54-1.978a1.085,1.085,0,0,0,.887-.8,1.1,1.1,0,0,0-.384-1.14c-.173-.128-.408-.24-.432-.456s.157-.355.232-.546c.173-.429-.222-.866-.6-1.125-.9-.606-2.231-.6-3.033-1.207S197.162,435.2,197.278,434.383Z" transform="translate(-148.87 -340.019)"/><path class="d" d="M403.19,287.257a12.639,12.639,0,0,1-1.969.046.431.431,0,0,0-.473.377l-1.256,9.528a3.89,3.89,0,0,1-.81,1.888,4.146,4.146,0,0,0-.916,3.144v16.185s-.081,2.158,1.559,2.158a23.44,23.44,0,0,0,5.91,0s1.313-.251,1.313-2.243V302.4a3.93,3.93,0,0,0-.81-3.169,3.989,3.989,0,0,1-.786-1.877l-1.3-9.728A.431.431,0,0,0,403.19,287.257Z" transform="translate(-299.057 -234.344)"/><path class="c" d="M403.19,287.257a12.639,12.639,0,0,1-1.969.046.431.431,0,0,0-.473.377l-1.256,9.528a3.89,3.89,0,0,1-.81,1.888,4.146,4.146,0,0,0-.916,3.144v16.185s-.081,2.158,1.559,2.158a23.44,23.44,0,0,0,5.91,0s1.313-.251,1.313-2.243V302.4a3.93,3.93,0,0,0-.81-3.169,3.989,3.989,0,0,1-.786-1.877l-1.3-9.728A.431.431,0,0,0,403.19,287.257Z" transform="translate(-299.057 -234.344)"/><rect class="h" width="7.96" height="13.612" rx="3.98" transform="translate(99.166 68.186)"/><path class="d" d="M511.3,136.407a12.375,12.375,0,0,1-1.8.82.438.438,0,0,0-.294.53l2.469,9.288a3.9,3.9,0,0,1-.022,2.054,4.139,4.139,0,0,0,.351,3.259l6.164,14.937s.746,2.021,2.261,1.382a23.392,23.392,0,0,0,5.456-2.311s1.116-.743.359-2.579l-6.069-14.708a3.9,3.9,0,0,0-1.953-2.612,3.952,3.952,0,0,1-1.44-1.423l-4.908-8.468A.43.43,0,0,0,511.3,136.407Z" transform="translate(-380.411 -124.666)"/><path class="h" d="M4.025,0A3.964,3.964,0,0,1,8,4L7.974,9.555a4.042,4.042,0,0,1-4,4.035A3.964,3.964,0,0,1,0,9.587L.022,4.035A4.042,4.042,0,0,1,4.025,0Z" transform="translate(132.088 27.773) rotate(-22.65)"/><path class="e" d="M226.746,342.434c-2.9,1.21-4.052,4.974-3.371,8.072s2.731,5.679,4.73,8.135l5.6,6.911c1.548,1.912,3.241,3.925,5.6,4.592,3.452.975,6.9-1.248,9.889-3.259A148.387,148.387,0,0,1,277.6,351.927a9.515,9.515,0,0,0,2.777-1.453,5.219,5.219,0,0,0,1.2-6.01,5.943,5.943,0,0,0-5.259-3.294,7.081,7.081,0,0,0-5.6,2.907c-.624.839-1.081,1.8-1.683,2.65-1.523,2.142-3.9,3.467-6.226,4.663a158.1,158.1,0,0,1-17.288,7.649,4.184,4.184,0,0,1-3.317.251,4.056,4.056,0,0,1-1.424-1.541,38.459,38.459,0,0,1-4.079-8.791c-.737-2.322-1.334-4.852-3.106-6.5a6.141,6.141,0,0,0-8.944,1.093s-2.207,3.264-.856,4.63S226.746,342.434,226.746,342.434Z" transform="translate(-171.656 -273.406)"/><path class="e" d="M784.5,294.2a8.426,8.426,0,0,1,.349,3.36c-.07,1.382-.413,3-1.683,3.532-.827.336-1.848.082-2.582.59-.891.612-.848,1.929-.71,3,.381,2.958.81,6.026,2.4,8.528a18.041,18.041,0,0,0,3.19,3.527c2.342,2.136,4.911,4.223,7.987,4.936a3.305,3.305,0,0,0,1.54.066,3.182,3.182,0,0,0,1.332-.819c1.783-1.655,2.7-4.018,3.89-6.16a22.985,22.985,0,0,0,2.315-4.693,8.253,8.253,0,0,0-2.48-8.269c-.527-.456-1.11-.839-1.621-1.311A8.44,8.44,0,0,1,796,295.723a21.114,21.114,0,0,1-.116-5.463,29.073,29.073,0,0,0-8.02.653,15.471,15.471,0,0,0-3.884.912C782.787,292.467,784.175,293.289,784.5,294.2Z" transform="translate(-577.918 -236.48)"/><path class="c" d="M784.5,294.2a8.426,8.426,0,0,1,.349,3.36c-.07,1.382-.413,3-1.683,3.532-.827.336-1.848.082-2.582.59-.891.612-.848,1.929-.71,3,.381,2.958.81,6.026,2.4,8.528a18.041,18.041,0,0,0,3.19,3.527c2.342,2.136,4.911,4.223,7.987,4.936a3.305,3.305,0,0,0,1.54.066,3.182,3.182,0,0,0,1.332-.819c1.783-1.655,2.7-4.018,3.89-6.16a22.985,22.985,0,0,0,2.315-4.693,8.253,8.253,0,0,0-2.48-8.269c-.527-.456-1.11-.839-1.621-1.311A8.44,8.44,0,0,1,796,295.723a21.114,21.114,0,0,1-.116-5.463,29.073,29.073,0,0,0-8.02.653,15.471,15.471,0,0,0-3.884.912C782.787,292.467,784.175,293.289,784.5,294.2Z" transform="translate(-577.918 -236.48)"/><path class="e" d="M613.921,194.933c-4.387-1.522-6.483-7.466-11.075-8.132-.724-.107-1.467-.066-2.177-.235-2.644-.634-3.782-3.726-4.546-6.362A103.668,103.668,0,0,0,585.4,155.026c-2.018-3.278-5.208-5.972-6.664-9.561a7.462,7.462,0,0,0-1.107-2.4c-.6-.647-1.891-.74-2.218.085a1.933,1.933,0,0,0-.059.9l.316,3.4-5.494-.5a3.175,3.175,0,0,0-1.521.109,2.6,2.6,0,0,0-1.2,1.259c-1.859,3.532.122,8.16,3.4,10.394,3.83,2.609,9.3,3,11.845,6.9,1.513,2.316,1.542,5.3,2.539,7.884.475,1.237,1.17,2.374,1.723,3.573a74.337,74.337,0,0,1,2.415,7.154,63.381,63.381,0,0,0,4.641,9.736,25.075,25.075,0,0,0,4.754,6.78,23.354,23.354,0,0,0,4.527,3c3.906,2.158,8.511,4.234,12.65,2.579A28.3,28.3,0,0,0,613.921,194.933Z" transform="translate(-422.41 -129.17)"/><path class="e" d="M753.416,732.854c-.332,3.565-2.472,6.794-2.971,10.225-3.3-.522-6.54-1.194-9.678-1.959-.386-.093-.77-.188-1.156-.273,1.777-4.917.23-10.424.7-15.661.046-.5.111-1.005.2-1.5,4.071-1.4,7.747-3.278,12.015-2.732.084.874.17,1.751.254,2.625q.257,2.62.508,5.234A21.445,21.445,0,0,1,753.416,732.854Z" transform="translate(-548.585 -549.495)"/><path class="e" d="M856.384,741.522c-1.6.492-3.241.921-4.957,1.273-.286.06-.575.117-.864.172-1.756.333-3.533.576-5.329.743-.184-3.8-2.7-7.288-3.069-11.186a16.619,16.619,0,0,1,.03-2.909c.032-.382.07-.765.105-1.147l.762-7.859a11.854,11.854,0,0,1,1.829-.09c3.511.085,6.707,1.623,10.186,2.822a24.828,24.828,0,0,1,.27,5.015c-.132,4.267-.81,8.586.756,12.5C856.193,741.076,856.29,741.3,856.384,741.522Z" transform="translate(-623.402 -549.247)"/><path class="g" d="M717.052,577.5c.473,3.726-1.41,7.294-2.226,10.957a39.184,39.184,0,0,0-.686,7.4l-.427,14.891a13.423,13.423,0,0,0,.367,4.434c.9,2.863,3.682,4.8,6.575,5.485a24.428,24.428,0,0,0,8.865-.055,9.162,9.162,0,0,0,4.149-1.265c1.645-1.161,2.364-3.229,2.985-5.158l1.753-5.444c2.018,4.595,1.164,9.618,2.374,14.495a2.824,2.824,0,0,0,.54,1.237,3.007,3.007,0,0,0,2.115.719c5.294.377,10.662.751,15.87-.273a6.866,6.866,0,0,0,3.914-1.8c1.151-1.265,1.351-3.125,1.337-4.843-.073-5.9-2.182-11.6-2.653-17.483-.2-2.521-.1-5.056-.192-7.586a51.34,51.34,0,0,0-.527-5.682,7.7,7.7,0,0,0-.691-2.486c-.81-1.53-2.493-2.36-4.087-3C744.026,576.953,730.407,577,717.052,577.5Z" transform="translate(-529.666 -445.144)"/><ellipse class="e" cx="11.615" cy="11.746" rx="11.615" ry="11.746" transform="translate(198.697 35.564)"/><path class="f" d="M750.321,325.494c-.862,1.912-2.218,3.824-4.235,4.311A5.758,5.758,0,0,1,740.9,328a20.872,20.872,0,0,1-3.209-4.77,8.923,8.923,0,0,0-2.631-3.229,7.8,7.8,0,0,0-5.548-.713,25.179,25.179,0,0,1-5.672.735c-2.385-.161-4.816-1.366-7.066-.563.729,3.3.467,6.928.384,10.31a4.692,4.692,0,0,1-.216,1.541,4.985,4.985,0,0,1-.786,1.278l-2.161,2.816a13.626,13.626,0,0,1,5.132,6.854,17.43,17.43,0,0,1,.3,4.966c-.051,4.892,1,9.766.667,14.647-.389,5.717-2.647,11.121-3.811,16.729a44.281,44.281,0,0,0-.556,14.642,134.965,134.965,0,0,0,37.379,7.116c2.261.126,4.7.145,6.558-1.169a7.235,7.235,0,0,0,2.7-4.849,21.777,21.777,0,0,0-.114-5.7q-.835-7.69-1.667-15.38a37.015,37.015,0,0,1,.61-15.246l2.7-13.129a27.251,27.251,0,0,1,1.54-5.485c.627-1.421,1.494-2.732,2.185-4.114a18.31,18.31,0,0,0,1.686-5.264,3.527,3.527,0,0,0-.022-1.612,3.706,3.706,0,0,0-2-1.874,57.562,57.562,0,0,0-15.98-5.668C750.926,322.486,751,323.994,750.321,325.494Z" transform="translate(-529.885 -257.493)"/><path class="d" d="M798.934,235.361c1.351-2.617,3.876-4.453,5.343-7.01a10.465,10.465,0,0,0,.329-9.561,34.742,34.742,0,0,1-1.621-3.158c-.451-1.268-.494-2.663-1.016-3.9a7.166,7.166,0,0,0-3.955-3.628,20.985,20.985,0,0,0-5.329-1.2l-6.137-.836a6.679,6.679,0,0,0-2.674,0,2.282,2.282,0,0,0-1.74,1.86c-.084,1.074.848,2.073.632,3.128-.078.372-.294.749-.17,1.109a1.12,1.12,0,0,0,.54.546c1.456.82,3.2.893,4.773,1.429s3.16,1.879,3,3.551c-.086.9-.659,1.833-.27,2.639.373.746,1.351.882,2.131,1.115a5.778,5.778,0,0,1,3.93,6.146c-.113.819-.405,1.6-.465,2.426-.2,2.879.251,3.7,2.577,5.376Z" transform="translate(-579.62 -175.228)"/><path class="b" d="M880.019,336.381a4.023,4.023,0,0,1-.289,1.593c-.843,1.817-3.422,1.7-5.132,2.732-2.129,1.284-2.6,4.149-2.793,6.646a30.226,30.226,0,0,0,.2,8.468,11.408,11.408,0,0,0,4.252,7.1,10.719,10.719,0,0,0,9.808.839,21.93,21.93,0,0,0,8.187-6.053,26.414,26.414,0,0,0,5.348-8.135,2.617,2.617,0,0,0,.224-1.672c-.251-.82-1.134-1.191-1.853-1.639a8.264,8.264,0,0,1-3.377-4.7,20.622,20.622,0,0,1-.7-5.876c-.022-2.057-.027-4.305-1.324-5.892s-3.544-2.032-5.591-2.016c-1.675,0-6.31.161-7.453,1.639C878.593,330.647,880.086,334.622,880.019,336.381Z" transform="translate(-644.926 -263.797)"/><path class="c" d="M880.019,336.381a4.023,4.023,0,0,1-.289,1.593c-.843,1.817-3.422,1.7-5.132,2.732-2.129,1.284-2.6,4.149-2.793,6.646a30.226,30.226,0,0,0,.2,8.468,11.408,11.408,0,0,0,4.252,7.1,10.719,10.719,0,0,0,9.808.839,21.93,21.93,0,0,0,8.187-6.053,26.414,26.414,0,0,0,5.348-8.135,2.617,2.617,0,0,0,.224-1.672c-.251-.82-1.134-1.191-1.853-1.639a8.264,8.264,0,0,1-3.377-4.7,20.622,20.622,0,0,1-.7-5.876c-.022-2.057-.027-4.305-1.324-5.892s-3.544-2.032-5.591-2.016c-1.675,0-6.31.161-7.453,1.639C878.593,330.647,880.086,334.622,880.019,336.381Z" transform="translate(-644.926 -263.797)"/><path class="b" d="M845.367,574.557a2.345,2.345,0,0,0,.562,1.115,2.22,2.22,0,0,0,.91.434c8.865,2.631,18.336,1.582,27.514.508a53.542,53.542,0,0,1-2.869-11.837c-.289-3.346.035-6.829-1.137-9.968-.346-.929-20.5,3.346-22.485,3.693-1.018.178-2.191.117-2.912.934-.87.989-.943,3.344-1.035,4.576A30.385,30.385,0,0,0,845.367,574.557Z" transform="translate(-624.678 -428.713)"/><path class="b" d="M871.767,716.211c-1.621.759-3.293,1.467-5.024,2.1q-1.4.516-2.869.967c-1.6.492-3.241.921-4.957,1.273q-1.467-3.762-2.936-7.526c-.721-1.847-1.442-3.7-2.045-5.589a35.316,35.316,0,0,1-1.032-3.931,28.347,28.347,0,0,1,.67-13.6c3.744.713,7.4,1.177,11.091,1.718,1.969.273,3.944.6,5.943.975q.235,1.975.427,3.95.292,3.049.478,6.1Q871.926,709.425,871.767,716.211Z" transform="translate(-630.891 -527.004)"/><path class="c" d="M871.767,716.211c-1.621.759-3.293,1.467-5.024,2.1q-1.4.516-2.869.967c-1.6.492-3.241.921-4.957,1.273q-1.467-3.762-2.936-7.526c-.721-1.847-1.442-3.7-2.045-5.589a35.316,35.316,0,0,1-1.032-3.931,28.347,28.347,0,0,1,.67-13.6c3.744.713,7.4,1.177,11.091,1.718,1.969.273,3.944.6,5.943.975q.235,1.975.427,3.95.292,3.049.478,6.1Q871.926,709.425,871.767,716.211Z" transform="translate(-630.891 -527.004)"/><path class="b" d="M925.881,721.323a17.872,17.872,0,0,1-.832,4.723c-.03.109-.057.216-.084.325a4.457,4.457,0,0,1-2.385-1.808,5.2,5.2,0,0,1-.64-1.516q-1.834,1.262-3.7,2.5a101.14,101.14,0,0,1-13.13,7.613c-1.621.759-3.293,1.467-5.024,2.1q-.54-1.912-1.026-3.849a36.014,36.014,0,0,1-.832-4.04,20.741,20.741,0,0,1,.9-9.192h0l.122-.355a20.186,20.186,0,0,1,1.769-3.767c.673-1.093,2-.91,3.363-.546.616.161,1.24.355,1.807.475,3.531.748,7.2-.025,10.8.18a12.8,12.8,0,0,1,4.957,1.276,6.856,6.856,0,0,1,3.685,4.1,6.175,6.175,0,0,1,.178.82,7.345,7.345,0,0,1,.073.964Z" transform="translate(-664.234 -543.953)"/><path class="b" d="M658.967,218.724a125.773,125.773,0,0,0-18.4-14.423,50.555,50.555,0,0,1-4.862-3.5c-1.621-1.366-3.033-2.969-4.754-4.2a7.87,7.87,0,0,0-5.916-1.669c-2.066.4-3.9,2.4-3.6,4.5.27,1.841,1.907,3.1,3.42,4.16a73.266,73.266,0,0,0,8.854,5.581,27.644,27.644,0,0,1,3.141,1.694,23.717,23.717,0,0,1,4.819,5.117,70.562,70.562,0,0,0,19.989,17.21c.092.055,3.287-6.919,3.152-7.824C664.51,223.283,660.437,220.166,658.967,218.724Z" transform="translate(-462.305 -167.163)"/><path class="d" d="M868.622,605.424c-4.306.273-8.436,1.743-12.647,2.68s-8.787,1.3-12.7-.546l2.377,16.415a7.7,7.7,0,0,1,.073,2.745,10.415,10.415,0,0,0-.61,2.543c.062,1.388,1.351,2.363,2.563,3a22.709,22.709,0,0,0,11.453,2.669c-.294,1.2-.662,2.39-.959,3.592,1.985,2.155,5.232,2.3,8.066,2.983,2.161.516,4.187,1.412,6.3,2.043a26.633,26.633,0,0,0,7.89,1.112,8.133,8.133,0,0,0,5.111-1.41c1.721-1.4,2.255-3.783,2.628-5.985a13.763,13.763,0,0,0,.27-3.715,14.848,14.848,0,0,0-1.226-4.1l-3.7-9.083c-.672-1.639-1.351-3.3-2.161-4.884C878.712,610.374,874.319,605.066,868.622,605.424Z" transform="translate(-624.252 -465.585)"/><path class="h" d="M802.505,326.317a4.048,4.048,0,0,1,4.241-2.614,7.83,7.83,0,0,1,2.971,1.336l5.159,3.256a22.473,22.473,0,0,1,2.455,1.71c3.557,2.983,4.93,7.886,5.321,12.544s0,9.394.916,13.975c-2.177,1.825-4.592,3.368-6.769,5.19a17.1,17.1,0,0,0-3.158,3.139c-.686.964-1.175,2.068-1.891,3a7.127,7.127,0,0,1-4.735,2.661,5.2,5.2,0,0,1,2.161,3.382c.319,1.341.405,2.732.759,4.073.486,1.822,1.494,3.486,1.826,5.343a33.976,33.976,0,0,1,.213,3.9c.421,6.728,5.643,12.61,5.305,19.341a28.89,28.89,0,0,1-6.931-3.685c-.962-.7-1.891-1.451-2.8-2.2l-6.88-5.641a57.454,57.454,0,0,1-9.387-8.955c-1.669-2.153-3.031-4.535-4.705-6.682a14.408,14.408,0,0,0-6.294-5c-.376.571-1.043.967-1.418,1.538a1.148,1.148,0,0,0-.157.3,1.306,1.306,0,0,0,.089.754,15.849,15.849,0,0,1,.54,3.385l.17,2.054a7.084,7.084,0,0,1,0,1.639,4.29,4.29,0,0,1-3.6,3.393,1.55,1.55,0,0,1-.759-.025,1.64,1.64,0,0,1-.9-1.172c-.683-2.333.365-4.794.448-7.223a17.574,17.574,0,0,0-.062-1.847l-.162-2.423c-1.569-.331-2.472-2.035-2.888-3.6-1.124-4.226-2.255-8.6-1.6-12.927a10.906,10.906,0,0,0,.27-3.491c-.27-1.549-1.372-2.805-1.953-4.264-1.891-4.756,2.126-9.919,1.753-15.024-.157-2.144-1.5-4.007-2.312-6a17.01,17.01,0,0,0-1.621-3.308,18.214,18.214,0,0,0-3.025-3.111,116.174,116.174,0,0,1-9.5-9.468,6.988,6.988,0,0,1-4.092-1.9,3.821,3.821,0,0,1-1.318-2.576,2.006,2.006,0,0,1,1.686-2.084,6.325,6.325,0,0,1,1.667.382c1.75.388,3.512-.915,4.292-2.551a12.075,12.075,0,0,0,.767-5.332,5.024,5.024,0,0,1,4.681,1.658,30.031,30.031,0,0,1,2.944,4.507,6.969,6.969,0,0,0,1.469,1.795c1.3,1.043,3.171,1.24,4.306,2.458.575.623.894,1.448,1.421,2.114,1.48,1.877,4.19,2.106,6.213,3.341s3.431,3.491,5.672,4.223c.81.273,1.694.309,2.5.612a5.65,5.65,0,0,1,3.241,4.668,17.105,17.105,0,0,1-.624,5.933l-1.04,4.565c-.23,1.011-.405,2.226.332,2.948a2.991,2.991,0,0,0,1.2.609c1.891.623,4,1.235,5.775.352a6.853,6.853,0,0,0,2.1-1.858C799.412,334.3,801.166,330.182,802.505,326.317Z" transform="translate(-554.839 -243.193)"/><path class="b" d="M997,670.938a8.122,8.122,0,0,1-3.963,6.1,5.615,5.615,0,0,1-4.292.3,4.456,4.456,0,0,1-2.385-1.808,5.2,5.2,0,0,1-.64-1.516.488.488,0,0,0-.019-.085,12.145,12.145,0,0,1-.251-2.942,38.808,38.808,0,0,1,.27-4.587,25.078,25.078,0,0,1,.746-3.792c.5-1.773,1.226-3.48,1.891-5.19.346-.9.678-1.806.951-2.732h0c.165-.546.305-1.109.419-1.677l.04-.2c.022-.115.041-.229.06-.344a16.509,16.509,0,0,1,1.043-4.576c1.621-3.3,4.776-2.459,5.257.587a5.427,5.427,0,0,1,.062.713c.073,3.854-1.44,7.621-.748,11.49a27.042,27.042,0,0,0,.735,2.792c.243.844.462,1.7.629,2.565A14.736,14.736,0,0,1,997,670.938Z" transform="translate(-728.011 -494.922)"/><path class="h" d="M992.387,519.844a30.959,30.959,0,0,0,.313,4.726c.732,3.66,3.512,6.9,3.2,10.621a2.877,2.877,0,0,1-1.191,2.33c-.783.448-2.08.413-2.337,1.314-.073.251-.035.525-.116.773a1.332,1.332,0,0,1-1.351.743,14.682,14.682,0,0,0-1.64-.148c-1.958.167-2.677,2.816-4.422,3.726a3.311,3.311,0,0,1-3.671-.631,4.655,4.655,0,0,1-1.318-3.65,27.4,27.4,0,0,1,.54-2.975,20.865,20.865,0,0,0-.014-5.382,32.87,32.87,0,0,0-1.332-7.772c-.4-1.175-.937-2.3-1.286-3.488a20.507,20.507,0,0,1-.662-5.215c-.105-3.7.146-7.649,2.328-10.621,1.64-2.229,3.99-4.04,5.845-6.1,1.161-1.292,1.5-1.7,2.779-.6,1.056.9,2.161,2.139,2.28,3.357.324,3.122,0,6.193.578,9.373A72.716,72.716,0,0,1,992.387,519.844Z" transform="translate(-721.914 -386.69)"/><ellipse class="b" cx="13.776" cy="13.932" rx="13.776" ry="13.932" transform="translate(228.68 45.125)"/><path class="d" d="M909.349,281.98a1.533,1.533,0,0,1,2.293-.743l3.628,1.532a12.072,12.072,0,0,0,1.685-5.4,28.168,28.168,0,0,1,.205-3.513c.33-1.71,1.332-3.243,1.564-4.969a15.442,15.442,0,0,0-.348-4.185c-.616-4.294.046-8.676-.308-13s-2.069-8.957-5.883-10.943a35.5,35.5,0,0,0-3.368-1.306c-2.5-.964-4.749-2.508-7.223-3.551s-5.381-1.522-7.779-.322-3.8,4.573-2.237,6.775a8.2,8.2,0,0,0,1.983,1.759c1.461,1.057,2.952,2.363,3.29,4.149.605,3.215-2.7,5.737-3.633,8.881a7.633,7.633,0,0,0-.089,3.767c.4,1.863,1.386,3.622,1.351,5.529-.027,2.09-1.264,3.983-1.5,6.062-.084.762-.032,1.535-.127,2.295a11.934,11.934,0,0,1-.872,2.9c-2.161,5.463-4.352,10.984-7.563,15.9a20.628,20.628,0,0,0,9.895-2.338,16.639,16.639,0,0,1-2.477,5.884,18.61,18.61,0,0,0,7.742-2.732,25.6,25.6,0,0,1-2.458,5.9c.092-.158,1.791-.546,2.1-.727a3.69,3.69,0,0,0,1.486-1.6c.918-1.661,1.491-3.663,2.342-5.39A78.676,78.676,0,0,1,909.349,281.98Z" transform="translate(-654.279 -196.272)"/><path class="d" d="M575.19,101.257a12.645,12.645,0,0,1-1.969.046.431.431,0,0,0-.473.377l-1.256,9.528a3.89,3.89,0,0,1-.81,1.888,4.146,4.146,0,0,0-.916,3.144v16.185s-.081,2.158,1.559,2.158a23.442,23.442,0,0,0,5.91,0s1.313-.251,1.313-2.243V116.4a3.931,3.931,0,0,0-.81-3.169,3.99,3.99,0,0,1-.786-1.877l-1.3-9.728A.431.431,0,0,0,575.19,101.257Z" transform="translate(-424.597 -99.154)"/><rect class="h" width="7.96" height="13.612" rx="3.98" transform="translate(145.626 17.376)"/><path class="d" d="M644.19,152.257a12.647,12.647,0,0,1-1.969.046.431.431,0,0,0-.473.377l-1.256,9.528a3.89,3.89,0,0,1-.81,1.888,4.146,4.146,0,0,0-.916,3.144v16.185s-.081,2.158,1.559,2.158a23.44,23.44,0,0,0,5.91,0s1.313-.251,1.313-2.243V167.4a3.93,3.93,0,0,0-.81-3.169,3.99,3.99,0,0,1-.786-1.877l-1.3-9.728A.431.431,0,0,0,644.19,152.257Z" transform="translate(-474.958 -136.222)"/><rect class="h" width="7.96" height="13.612" rx="3.98" transform="translate(164.265 31.308)"/><g class="i" transform="translate(132.364 105.769)"><path class="d" d="M565.772,739.379a5.244,5.244,0,0,1-.1.877q-2.82-.453-5.672-.819V739.2a4.649,4.649,0,0,1,.675-2.317,2.5,2.5,0,0,1,4.573.142A4.652,4.652,0,0,1,565.772,739.379Z" transform="translate(-549.854 -665.884)"/><ellipse class="d" cx="3.826" cy="2.889" rx="3.826" ry="2.889" transform="translate(10.173 72.472) rotate(-88.19)"/><ellipse class="d" cx="3.826" cy="2.889" rx="3.826" ry="2.889" transform="translate(10.32 67.795) rotate(-88.19)"/><ellipse class="d" cx="3.826" cy="2.889" rx="3.826" ry="2.889" transform="translate(10.465 63.118) rotate(-88.19)"/><ellipse class="d" cx="3.826" cy="2.889" rx="3.826" ry="2.889" transform="translate(10.612 58.441) rotate(-88.19)"/><path class="h" d="M526.23,503.093a13.6,13.6,0,0,1-1.026-1.639l7.634-1.019-8.217-.2a14.181,14.181,0,0,1,.084-11.1l10.837,6.133-9.927-7.878a13.783,13.783,0,0,1,24.561,1.963,14.134,14.134,0,0,1-2.185,14.427,13.924,13.924,0,0,1,1.5,2.6l-10.019,4.862,10.624-3.232a14.147,14.147,0,0,1-2.653,13.088,14.12,14.12,0,0,1-2.076,18.9,13.738,13.738,0,0,1-18.789-.6,14.124,14.124,0,0,1-.9-18.99,14.132,14.132,0,0,1,.54-17.314Z" transform="translate(-522.44 -480.747)"/><path class="c" d="M550.684,596.525a14.023,14.023,0,0,1-3.241,8.561,14.12,14.12,0,0,1-2.076,18.9,13.738,13.738,0,0,1-18.789-.6,14.124,14.124,0,0,1-.9-18.99C523.907,601.953,550.732,594.954,550.684,596.525Z" transform="translate(-522.44 -564.733)"/></g></svg>